<?xml version="1.0" encoding="utf-8"?>
<!-- Generator: Adobe Illustrator 18.1.0, SVG Export Plug-In . SVG Version: 6.00 Build 0)  -->
<svg version="1.1" id="Layer_1" xmlns="http://www.w3.org/2000/svg" xmlns:xlink="http://www.w3.org/1999/xlink" x="0px" y="0px"
	 viewBox="0 0 1024 1024" enable-background="new 0 0 1024 1024" xml:space="preserve">
<g>
	<path fill="#FFFFFF" d="M323.7,320.9c-37.2,87.4-92.8,160.3-102.2,218.5c-33.7,208.4,142.5,239.8,230.5,40.9
		c42.3-95.7,40.5-180.5,87.9-278.6c28.4-58.8,100.1-103.1,136.5,2.2c14.4,41.7,17.5,254,122.5,367
		c97.1,104.5,218.7,64.9,218.7,200.2c0,53.8-32.9,127.6-113.7,109.9c-163.8-35.9-323-206.2-327.5-320.6
		c-9.7,127.8-84.1,194.1-176,238.3C233.1,979.1,7.7,934.7,7.7,687.3c0-115.1,53.7-159.2,81.2-255.5c12.7-44.4,1.9-82.3,9.8-175
		C113.9,78.9,414.9,106.6,323.7,320.9z"/>
	<ellipse fill="#FFFFFF" cx="617.4" cy="116.7" rx="75.7" ry="85.4"/>
</g>
</svg>
